<mxfile host="app.diagrams.net" modified="2020-05-15T05:19:16.159Z" agent="5.0 (Windows NT 10.0; Win64; x64) AppleWebKit/537.36 (KHTML, like Gecko) Chrome/81.0.4044.138 Safari/537.36" etag="MPjz5G4WB8t8K-XdWw5O" version="13.0.9" type="github">
  <diagram id="K03sYseseirvuOLzhtns" name="Page-1">
    <mxGraphModel dx="2782" dy="2342" grid="1" gridSize="10" guides="1" tooltips="1" connect="1" arrows="1" fold="1" page="1" pageScale="1" pageWidth="827" pageHeight="1169" math="0" shadow="0">
      <root>
        <mxCell id="0" />
        <mxCell id="1" parent="0" />
        <mxCell id="TGKqARG2-MbJU1Pvm6La-5" value="Sulppliers" style="rounded=0;whiteSpace=wrap;html=1;fillColor=#dae8fc;strokeColor=#6c8ebf;fontStyle=1;fontSize=17;" parent="1" vertex="1">
          <mxGeometry x="-190" y="210" width="120" height="60" as="geometry" />
        </mxCell>
        <mxCell id="TGKqARG2-MbJU1Pvm6La-109" value="" style="edgeStyle=orthogonalEdgeStyle;rounded=0;orthogonalLoop=1;jettySize=auto;html=1;startArrow=none;startFill=0;endArrow=none;endFill=0;fontSize=17;entryX=0.5;entryY=1;entryDx=0;entryDy=0;" parent="1" source="TGKqARG2-MbJU1Pvm6La-6" target="TGKqARG2-MbJU1Pvm6La-110" edge="1">
          <mxGeometry relative="1" as="geometry">
            <mxPoint x="220" y="20" as="targetPoint" />
            <Array as="points">
              <mxPoint x="240" y="-30" />
              <mxPoint x="290" y="-30" />
            </Array>
          </mxGeometry>
        </mxCell>
        <mxCell id="FO-TaxdujKSURo-2o1d0-5" style="edgeStyle=orthogonalEdgeStyle;rounded=0;orthogonalLoop=1;jettySize=auto;html=1;exitX=1;exitY=0;exitDx=0;exitDy=0;entryX=0.5;entryY=1;entryDx=0;entryDy=0;endArrow=none;endFill=0;" edge="1" parent="1" source="TGKqARG2-MbJU1Pvm6La-6" target="FO-TaxdujKSURo-2o1d0-3">
          <mxGeometry relative="1" as="geometry" />
        </mxCell>
        <mxCell id="TGKqARG2-MbJU1Pvm6La-6" value="ABC Hire" style="rounded=0;whiteSpace=wrap;html=1;fillColor=#dae8fc;strokeColor=#6c8ebf;fontStyle=1;fontSize=17;" parent="1" vertex="1">
          <mxGeometry x="130" y="100" width="120" height="60" as="geometry" />
        </mxCell>
        <mxCell id="FO-TaxdujKSURo-2o1d0-24" style="edgeStyle=orthogonalEdgeStyle;rounded=0;orthogonalLoop=1;jettySize=auto;html=1;entryX=0.5;entryY=1;entryDx=0;entryDy=0;endArrow=none;endFill=0;startArrow=ERoneToMany;startFill=0;" edge="1" parent="1" source="TGKqARG2-MbJU1Pvm6La-8" target="TGKqARG2-MbJU1Pvm6La-69">
          <mxGeometry relative="1" as="geometry" />
        </mxCell>
        <mxCell id="TGKqARG2-MbJU1Pvm6La-8" value="Private customers" style="rounded=0;whiteSpace=wrap;html=1;fillColor=#dae8fc;strokeColor=#6c8ebf;fontStyle=1;fontSize=17;" parent="1" vertex="1">
          <mxGeometry x="160" y="680" width="120" height="60" as="geometry" />
        </mxCell>
        <mxCell id="FO-TaxdujKSURo-2o1d0-50" style="edgeStyle=orthogonalEdgeStyle;rounded=0;orthogonalLoop=1;jettySize=auto;html=1;entryX=1;entryY=0.5;entryDx=0;entryDy=0;startArrow=ERoneToMany;startFill=0;endArrow=none;endFill=0;fontColor=#000000;" edge="1" parent="1" source="TGKqARG2-MbJU1Pvm6La-9" target="TGKqARG2-MbJU1Pvm6La-62">
          <mxGeometry relative="1" as="geometry" />
        </mxCell>
        <mxCell id="TGKqARG2-MbJU1Pvm6La-9" value="Business customers" style="rounded=0;whiteSpace=wrap;html=1;fillColor=#dae8fc;strokeColor=#6c8ebf;fontStyle=1;fontSize=17;" parent="1" vertex="1">
          <mxGeometry x="670" y="100" width="120" height="60" as="geometry" />
        </mxCell>
        <mxCell id="TGKqARG2-MbJU1Pvm6La-41" style="edgeStyle=orthogonalEdgeStyle;rounded=0;orthogonalLoop=1;jettySize=auto;html=1;entryX=0;entryY=0.75;entryDx=0;entryDy=0;endArrow=none;endFill=0;fontSize=17;" parent="1" source="TGKqARG2-MbJU1Pvm6La-28" target="TGKqARG2-MbJU1Pvm6La-5" edge="1">
          <mxGeometry relative="1" as="geometry" />
        </mxCell>
        <mxCell id="TGKqARG2-MbJU1Pvm6La-84" value="" style="edgeStyle=orthogonalEdgeStyle;rounded=0;orthogonalLoop=1;jettySize=auto;html=1;startArrow=none;startFill=0;endArrow=none;endFill=0;fontSize=17;" parent="1" source="TGKqARG2-MbJU1Pvm6La-28" target="TGKqARG2-MbJU1Pvm6La-5" edge="1">
          <mxGeometry relative="1" as="geometry">
            <Array as="points">
              <mxPoint x="-190" y="260" />
            </Array>
          </mxGeometry>
        </mxCell>
        <mxCell id="TGKqARG2-MbJU1Pvm6La-28" value="&lt;meta http-equiv=&quot;content-type&quot; content=&quot;text/html; charset=UTF-8&quot;&gt;&lt;pre style=&quot;background-color: rgb(255, 255, 255); font-family: Consolas; font-size: 9.8pt;&quot;&gt;&lt;span style=&quot;font-weight: bold;&quot;&gt;sbrand&lt;/span&gt;&lt;/pre&gt;" style="ellipse;whiteSpace=wrap;html=1;aspect=fixed;fontSize=17;align=center;fontStyle=4;fontColor=#000000;" parent="1" vertex="1">
          <mxGeometry x="-290" y="220" width="80" height="80" as="geometry" />
        </mxCell>
        <mxCell id="TGKqARG2-MbJU1Pvm6La-42" style="edgeStyle=orthogonalEdgeStyle;rounded=0;orthogonalLoop=1;jettySize=auto;html=1;endArrow=none;endFill=0;fontSize=17;" parent="1" source="TGKqARG2-MbJU1Pvm6La-29" edge="1">
          <mxGeometry relative="1" as="geometry">
            <Array as="points">
              <mxPoint x="-170" y="370" />
              <mxPoint x="-170" y="270" />
            </Array>
            <mxPoint x="-170" y="270" as="targetPoint" />
          </mxGeometry>
        </mxCell>
        <mxCell id="TGKqARG2-MbJU1Pvm6La-29" value="&lt;meta http-equiv=&quot;content-type&quot; content=&quot;text/html; charset=UTF-8&quot;&gt;&lt;pre style=&quot;background-color: rgb(255, 255, 255); font-family: Consolas; font-size: 9.8pt;&quot;&gt;&lt;span style=&quot;&quot;&gt;sprice&lt;/span&gt;&lt;/pre&gt;" style="ellipse;whiteSpace=wrap;html=1;aspect=fixed;fontSize=17;fontColor=#000000;fontStyle=1" parent="1" vertex="1">
          <mxGeometry x="-320" y="330" width="80" height="80" as="geometry" />
        </mxCell>
        <mxCell id="TGKqARG2-MbJU1Pvm6La-72" style="edgeStyle=orthogonalEdgeStyle;rounded=0;orthogonalLoop=1;jettySize=auto;html=1;entryX=1;entryY=0.5;entryDx=0;entryDy=0;startArrow=none;startFill=0;endArrow=none;endFill=0;fontSize=17;" parent="1" source="TGKqARG2-MbJU1Pvm6La-30" target="TGKqARG2-MbJU1Pvm6La-5" edge="1">
          <mxGeometry relative="1" as="geometry" />
        </mxCell>
        <mxCell id="TGKqARG2-MbJU1Pvm6La-30" value="&lt;pre style=&quot;background-color: rgb(255, 255, 255); font-family: consolas; font-size: 9.8pt;&quot;&gt;&lt;span style=&quot;font-weight: bold;&quot;&gt;supplier&lt;/span&gt;&lt;/pre&gt;&lt;pre style=&quot;background-color: rgb(255, 255, 255); font-family: consolas; font-size: 9.8pt;&quot;&gt;&lt;span style=&quot;font-weight: bold;&quot;&gt;amount&lt;/span&gt;&lt;/pre&gt;" style="ellipse;whiteSpace=wrap;html=1;aspect=fixed;fontSize=17;fontColor=#000000;" parent="1" vertex="1">
          <mxGeometry x="-50" y="200" width="80" height="80" as="geometry" />
        </mxCell>
        <mxCell id="TGKqARG2-MbJU1Pvm6La-38" style="edgeStyle=orthogonalEdgeStyle;rounded=0;orthogonalLoop=1;jettySize=auto;html=1;endArrow=none;endFill=0;fontSize=17;" parent="1" source="TGKqARG2-MbJU1Pvm6La-34" target="TGKqARG2-MbJU1Pvm6La-9" edge="1">
          <mxGeometry relative="1" as="geometry">
            <mxPoint x="680" y="80" as="targetPoint" />
            <Array as="points">
              <mxPoint x="690" y="20" />
            </Array>
          </mxGeometry>
        </mxCell>
        <mxCell id="TGKqARG2-MbJU1Pvm6La-34" value="&lt;pre style=&quot;background-color: rgb(255, 255, 255); font-family: consolas; font-size: 9.8pt;&quot;&gt;&lt;span style=&quot;font-weight: bold;&quot;&gt;bactual &lt;/span&gt;&lt;/pre&gt;&lt;pre style=&quot;background-color: rgb(255, 255, 255); font-family: consolas; font-size: 9.8pt;&quot;&gt;&lt;span style=&quot;font-weight: bold;&quot;&gt;return date&lt;/span&gt;&lt;/pre&gt;" style="ellipse;whiteSpace=wrap;html=1;aspect=fixed;fontSize=17;fontColor=#000000;" parent="1" vertex="1">
          <mxGeometry x="540" y="-70" width="80" height="80" as="geometry" />
        </mxCell>
        <mxCell id="FO-TaxdujKSURo-2o1d0-15" style="edgeStyle=orthogonalEdgeStyle;rounded=0;orthogonalLoop=1;jettySize=auto;html=1;entryX=1;entryY=0.75;entryDx=0;entryDy=0;endArrow=none;endFill=0;" edge="1" parent="1" source="TGKqARG2-MbJU1Pvm6La-35" target="TGKqARG2-MbJU1Pvm6La-9">
          <mxGeometry relative="1" as="geometry" />
        </mxCell>
        <mxCell id="TGKqARG2-MbJU1Pvm6La-35" value="&lt;div style=&quot;text-align: justify&quot;&gt;&lt;pre style=&quot;background-color: rgb(255 , 255 , 255) ; font-family: &amp;quot;consolas&amp;quot; ; font-size: 9.8pt&quot;&gt;&lt;span style=&quot;font-weight: bold;&quot;&gt;b equipment&lt;/span&gt;&lt;/pre&gt;&lt;/div&gt;" style="ellipse;whiteSpace=wrap;html=1;aspect=fixed;fontSize=17;fontStyle=4;fontColor=#000000;" parent="1" vertex="1">
          <mxGeometry x="860" y="100" width="80" height="80" as="geometry" />
        </mxCell>
        <mxCell id="TGKqARG2-MbJU1Pvm6La-50" style="edgeStyle=orthogonalEdgeStyle;rounded=0;orthogonalLoop=1;jettySize=auto;html=1;entryX=0;entryY=0.5;entryDx=0;entryDy=0;endArrow=ERzeroToMany;endFill=1;fontSize=17;" parent="1" source="TGKqARG2-MbJU1Pvm6La-49" target="TGKqARG2-MbJU1Pvm6La-6" edge="1">
          <mxGeometry relative="1" as="geometry" />
        </mxCell>
        <mxCell id="TGKqARG2-MbJU1Pvm6La-51" style="edgeStyle=orthogonalEdgeStyle;rounded=0;orthogonalLoop=1;jettySize=auto;html=1;entryX=0.5;entryY=0;entryDx=0;entryDy=0;endArrow=ERoneToMany;endFill=0;fontSize=17;" parent="1" source="TGKqARG2-MbJU1Pvm6La-49" target="TGKqARG2-MbJU1Pvm6La-5" edge="1">
          <mxGeometry relative="1" as="geometry" />
        </mxCell>
        <mxCell id="TGKqARG2-MbJU1Pvm6La-49" value="Obtaied" style="rhombus;whiteSpace=wrap;html=1;fontSize=17;fillColor=#f8cecc;strokeColor=#b85450;" parent="1" vertex="1">
          <mxGeometry x="-50" y="90" width="80" height="80" as="geometry" />
        </mxCell>
        <mxCell id="TGKqARG2-MbJU1Pvm6La-63" style="edgeStyle=orthogonalEdgeStyle;rounded=0;orthogonalLoop=1;jettySize=auto;html=1;entryX=1;entryY=0.5;entryDx=0;entryDy=0;startArrow=none;startFill=0;endArrow=ERoneToMany;endFill=0;fontSize=17;" parent="1" source="TGKqARG2-MbJU1Pvm6La-62" target="TGKqARG2-MbJU1Pvm6La-6" edge="1">
          <mxGeometry relative="1" as="geometry" />
        </mxCell>
        <mxCell id="TGKqARG2-MbJU1Pvm6La-62" value="arrange" style="rhombus;whiteSpace=wrap;html=1;fontSize=17;fillColor=#f8cecc;strokeColor=#b85450;fontStyle=0" parent="1" vertex="1">
          <mxGeometry x="360" y="90" width="80" height="80" as="geometry" />
        </mxCell>
        <mxCell id="TGKqARG2-MbJU1Pvm6La-75" style="edgeStyle=orthogonalEdgeStyle;rounded=0;orthogonalLoop=1;jettySize=auto;html=1;startArrow=none;startFill=0;endArrow=ERoneToMany;endFill=0;fontSize=17;entryX=0.75;entryY=1;entryDx=0;entryDy=0;" parent="1" source="TGKqARG2-MbJU1Pvm6La-69" target="TGKqARG2-MbJU1Pvm6La-6" edge="1">
          <mxGeometry relative="1" as="geometry">
            <mxPoint x="220" y="200" as="targetPoint" />
          </mxGeometry>
        </mxCell>
        <mxCell id="TGKqARG2-MbJU1Pvm6La-69" value="Hire" style="rhombus;whiteSpace=wrap;html=1;fontSize=17;fillColor=#f8cecc;strokeColor=#b85450;fontStyle=0" parent="1" vertex="1">
          <mxGeometry x="180" y="270" width="80" height="80" as="geometry" />
        </mxCell>
        <mxCell id="FO-TaxdujKSURo-2o1d0-8" style="edgeStyle=orthogonalEdgeStyle;rounded=0;orthogonalLoop=1;jettySize=auto;html=1;entryX=0;entryY=0;entryDx=0;entryDy=0;endArrow=none;endFill=0;" edge="1" parent="1" source="TGKqARG2-MbJU1Pvm6La-79" target="TGKqARG2-MbJU1Pvm6La-6">
          <mxGeometry relative="1" as="geometry" />
        </mxCell>
        <mxCell id="TGKqARG2-MbJU1Pvm6La-79" value="&lt;pre style=&quot;font-family: consolas; font-size: 9.8pt;&quot;&gt;&lt;span style=&quot;font-weight: bold;&quot;&gt;equipment&lt;/span&gt;&lt;/pre&gt;&lt;pre style=&quot;font-family: consolas; font-size: 9.8pt;&quot;&gt;&lt;span style=&quot;font-weight: bold;&quot;&gt;name&lt;/span&gt;&lt;/pre&gt;" style="ellipse;whiteSpace=wrap;html=1;aspect=fixed;fontSize=17;fontStyle=4;fillColor=#fff2cc;strokeColor=#d6b656;labelBackgroundColor=none;fontColor=#000000;" parent="1" vertex="1">
          <mxGeometry x="90" width="80" height="80" as="geometry" />
        </mxCell>
        <mxCell id="FO-TaxdujKSURo-2o1d0-21" style="edgeStyle=orthogonalEdgeStyle;rounded=0;orthogonalLoop=1;jettySize=auto;html=1;entryX=0.75;entryY=1;entryDx=0;entryDy=0;endArrow=none;endFill=0;" edge="1" parent="1" source="TGKqARG2-MbJU1Pvm6La-85" target="TGKqARG2-MbJU1Pvm6La-9">
          <mxGeometry relative="1" as="geometry" />
        </mxCell>
        <mxCell id="TGKqARG2-MbJU1Pvm6La-85" value="&lt;div style=&quot;text-align: justify&quot;&gt;&lt;pre style=&quot;background-color: rgb(255 , 255 , 255) ; font-family: &amp;quot;consolas&amp;quot; ; font-size: 9.8pt&quot;&gt;&lt;span style=&quot;font-weight: bold;&quot;&gt;bmembership&lt;/span&gt;&lt;/pre&gt;&lt;/div&gt;" style="ellipse;whiteSpace=wrap;html=1;aspect=fixed;fontSize=17;fontStyle=0;fontColor=#000000;" parent="1" vertex="1">
          <mxGeometry x="860" y="200" width="80" height="80" as="geometry" />
        </mxCell>
        <mxCell id="FO-TaxdujKSURo-2o1d0-18" style="edgeStyle=orthogonalEdgeStyle;rounded=0;orthogonalLoop=1;jettySize=auto;html=1;entryX=0.25;entryY=1;entryDx=0;entryDy=0;endArrow=none;endFill=0;exitX=1;exitY=0;exitDx=0;exitDy=0;" edge="1" parent="1" source="TGKqARG2-MbJU1Pvm6La-86" target="TGKqARG2-MbJU1Pvm6La-9">
          <mxGeometry relative="1" as="geometry">
            <mxPoint x="690" y="270" as="sourcePoint" />
          </mxGeometry>
        </mxCell>
        <mxCell id="TGKqARG2-MbJU1Pvm6La-86" value="&lt;pre style=&quot;background-color: rgb(255, 255, 255); font-family: consolas; font-size: 9.8pt;&quot;&gt;&lt;span style=&quot;font-weight: bold;&quot;&gt;brefund &lt;/span&gt;&lt;/pre&gt;&lt;pre style=&quot;background-color: rgb(255, 255, 255); font-family: consolas; font-size: 9.8pt;&quot;&gt;&lt;span style=&quot;font-weight: bold;&quot;&gt;price&lt;/span&gt;&lt;/pre&gt;" style="ellipse;whiteSpace=wrap;html=1;aspect=fixed;fontSize=17;fontStyle=0;fontColor=#000000;" parent="1" vertex="1">
          <mxGeometry x="590" y="310" width="80" height="80" as="geometry" />
        </mxCell>
        <mxCell id="FO-TaxdujKSURo-2o1d0-20" style="edgeStyle=orthogonalEdgeStyle;rounded=0;orthogonalLoop=1;jettySize=auto;html=1;endArrow=none;endFill=0;" edge="1" parent="1" source="TGKqARG2-MbJU1Pvm6La-87" target="TGKqARG2-MbJU1Pvm6La-9">
          <mxGeometry relative="1" as="geometry" />
        </mxCell>
        <mxCell id="TGKqARG2-MbJU1Pvm6La-87" value="&lt;pre style=&quot;background-color: rgb(255, 255, 255); font-family: consolas; font-size: 9.8pt;&quot;&gt;&lt;span style=&quot;font-weight: bold;&quot;&gt;brefund&lt;/span&gt;&lt;/pre&gt;&lt;pre style=&quot;background-color: rgb(255, 255, 255); font-family: consolas; font-size: 9.8pt;&quot;&gt;&lt;span style=&quot;font-weight: bold;&quot;&gt;amount&lt;/span&gt;&lt;/pre&gt;" style="ellipse;whiteSpace=wrap;html=1;aspect=fixed;fontSize=17;fontStyle=0;fontColor=#000000;" parent="1" vertex="1">
          <mxGeometry x="680" y="260" width="80" height="80" as="geometry" />
        </mxCell>
        <mxCell id="FO-TaxdujKSURo-2o1d0-49" style="edgeStyle=orthogonalEdgeStyle;rounded=0;orthogonalLoop=1;jettySize=auto;html=1;entryX=1;entryY=0.5;entryDx=0;entryDy=0;startArrow=none;startFill=0;endArrow=none;endFill=0;fontColor=#000000;" edge="1" parent="1" source="TGKqARG2-MbJU1Pvm6La-97" target="TGKqARG2-MbJU1Pvm6La-69">
          <mxGeometry relative="1" as="geometry" />
        </mxCell>
        <mxCell id="TGKqARG2-MbJU1Pvm6La-97" value="&lt;div style=&quot;text-align: justify&quot;&gt;&lt;font face=&quot;malgun gothic, malgun gothic_msfontservice, sans-serif&quot;&gt;&lt;span style=&quot;font-size: 13.3333px ; background-color: rgb(255 , 255 , 255)&quot;&gt;&lt;span&gt;5_mile&lt;/span&gt;&lt;/span&gt;&lt;/font&gt;&lt;/div&gt;" style="ellipse;whiteSpace=wrap;html=1;aspect=fixed;fontSize=17;fontStyle=0" parent="1" vertex="1">
          <mxGeometry x="330" y="270" width="80" height="80" as="geometry" />
        </mxCell>
        <mxCell id="TGKqARG2-MbJU1Pvm6La-100" style="edgeStyle=orthogonalEdgeStyle;rounded=0;orthogonalLoop=1;jettySize=auto;html=1;entryX=0.75;entryY=1;entryDx=0;entryDy=0;startArrow=none;startFill=0;endArrow=none;endFill=0;fontSize=17;" parent="1" source="TGKqARG2-MbJU1Pvm6La-99" target="TGKqARG2-MbJU1Pvm6La-5" edge="1">
          <mxGeometry relative="1" as="geometry" />
        </mxCell>
        <mxCell id="TGKqARG2-MbJU1Pvm6La-99" value="&lt;meta http-equiv=&quot;content-type&quot; content=&quot;text/html; charset=UTF-8&quot;&gt;&lt;pre style=&quot;background-color: rgb(255, 255, 255); font-family: Consolas; font-size: 9.8pt;&quot;&gt;&lt;span style=&quot;font-weight: bold;&quot;&gt;saddress&lt;/span&gt;&lt;/pre&gt;" style="ellipse;whiteSpace=wrap;html=1;aspect=fixed;fontSize=17;fontColor=#000000;" parent="1" vertex="1">
          <mxGeometry x="-80" y="320" width="80" height="80" as="geometry" />
        </mxCell>
        <mxCell id="TGKqARG2-MbJU1Pvm6La-105" style="edgeStyle=orthogonalEdgeStyle;rounded=0;orthogonalLoop=1;jettySize=auto;html=1;entryX=0;entryY=0.25;entryDx=0;entryDy=0;startArrow=none;startFill=0;endArrow=none;endFill=0;fontSize=17;" parent="1" source="TGKqARG2-MbJU1Pvm6La-101" target="TGKqARG2-MbJU1Pvm6La-5" edge="1">
          <mxGeometry relative="1" as="geometry" />
        </mxCell>
        <mxCell id="TGKqARG2-MbJU1Pvm6La-101" value="&lt;meta http-equiv=&quot;content-type&quot; content=&quot;text/html; charset=UTF-8&quot;&gt;&lt;pre style=&quot;background-color: rgb(255, 255, 255); font-family: Consolas; font-size: 9.8pt;&quot;&gt;&lt;span style=&quot;font-weight: bold;&quot;&gt;sequipment&lt;/span&gt;&lt;/pre&gt;" style="ellipse;whiteSpace=wrap;html=1;aspect=fixed;fontSize=17;align=center;fontStyle=4;fontColor=#000000;" parent="1" vertex="1">
          <mxGeometry x="-330" y="52" width="80" height="80" as="geometry" />
        </mxCell>
        <mxCell id="TGKqARG2-MbJU1Pvm6La-104" style="edgeStyle=orthogonalEdgeStyle;rounded=0;orthogonalLoop=1;jettySize=auto;html=1;entryX=0.25;entryY=0;entryDx=0;entryDy=0;startArrow=none;startFill=0;endArrow=none;endFill=0;fontSize=17;" parent="1" source="TGKqARG2-MbJU1Pvm6La-102" target="TGKqARG2-MbJU1Pvm6La-5" edge="1">
          <mxGeometry relative="1" as="geometry" />
        </mxCell>
        <mxCell id="TGKqARG2-MbJU1Pvm6La-102" value="&lt;meta http-equiv=&quot;content-type&quot; content=&quot;text/html; charset=UTF-8&quot;&gt;&lt;pre style=&quot;font-family: Consolas; font-size: 9.8pt;&quot;&gt;&lt;span style=&quot;font-weight: bold;&quot;&gt;sname&lt;/span&gt;&lt;/pre&gt;" style="ellipse;whiteSpace=wrap;html=1;aspect=fixed;fontSize=17;align=center;fontStyle=4;fillColor=#fff2cc;strokeColor=#d6b656;labelBackgroundColor=none;fontColor=#000000;" parent="1" vertex="1">
          <mxGeometry x="-220" width="80" height="80" as="geometry" />
        </mxCell>
        <mxCell id="TGKqARG2-MbJU1Pvm6La-107" style="edgeStyle=orthogonalEdgeStyle;rounded=0;orthogonalLoop=1;jettySize=auto;html=1;startArrow=none;startFill=0;endArrow=none;endFill=0;fontSize=17;" parent="1" source="TGKqARG2-MbJU1Pvm6La-106" edge="1">
          <mxGeometry relative="1" as="geometry">
            <mxPoint x="-130" y="270" as="targetPoint" />
          </mxGeometry>
        </mxCell>
        <mxCell id="TGKqARG2-MbJU1Pvm6La-106" value="&lt;pre style=&quot;background-color: rgb(255, 255, 255); font-family: consolas; font-size: 9.8pt;&quot;&gt;&lt;span style=&quot;font-weight: bold;&quot;&gt;delivery&lt;/span&gt;&lt;/pre&gt;&lt;pre style=&quot;background-color: rgb(255, 255, 255); font-family: consolas; font-size: 9.8pt;&quot;&gt;&lt;span style=&quot;font-weight: bold;&quot;&gt;time&lt;/span&gt;&lt;/pre&gt;" style="ellipse;whiteSpace=wrap;html=1;aspect=fixed;fontSize=17;fontColor=#000000;" parent="1" vertex="1">
          <mxGeometry x="-180" y="400" width="80" height="80" as="geometry" />
        </mxCell>
        <mxCell id="TGKqARG2-MbJU1Pvm6La-110" value="&lt;pre style=&quot;background-color: rgb(255, 255, 255); font-family: consolas; font-size: 9.8pt;&quot;&gt;&lt;span style=&quot;font-weight: bold;&quot;&gt;equipment&lt;/span&gt;&lt;/pre&gt;&lt;pre style=&quot;background-color: rgb(255, 255, 255); font-family: consolas; font-size: 9.8pt;&quot;&gt;&lt;span style=&quot;font-weight: bold;&quot;&gt;category&lt;/span&gt;&lt;/pre&gt;" style="ellipse;whiteSpace=wrap;html=1;aspect=fixed;fontSize=17;fontStyle=0;fontColor=#000000;" parent="1" vertex="1">
          <mxGeometry x="250" y="-240" width="80" height="80" as="geometry" />
        </mxCell>
        <mxCell id="TGKqARG2-MbJU1Pvm6La-145" style="edgeStyle=orthogonalEdgeStyle;rounded=0;orthogonalLoop=1;jettySize=auto;html=1;startArrow=none;startFill=0;endArrow=none;endFill=0;fontSize=17;entryX=0.42;entryY=-0.049;entryDx=0;entryDy=0;entryPerimeter=0;" parent="1" source="TGKqARG2-MbJU1Pvm6La-133" target="TGKqARG2-MbJU1Pvm6La-9" edge="1">
          <mxGeometry relative="1" as="geometry">
            <mxPoint x="720" y="60" as="targetPoint" />
          </mxGeometry>
        </mxCell>
        <mxCell id="TGKqARG2-MbJU1Pvm6La-133" value="&lt;pre style=&quot;background-color: rgb(255, 255, 255); font-family: consolas; font-size: 9.8pt;&quot;&gt;&lt;span style=&quot;font-weight: bold;&quot;&gt;bhiring&lt;/span&gt;&lt;/pre&gt;&lt;pre style=&quot;background-color: rgb(255, 255, 255); font-family: consolas; font-size: 9.8pt;&quot;&gt;&lt;span style=&quot;font-weight: bold;&quot;&gt;date&lt;/span&gt;&lt;/pre&gt;" style="ellipse;whiteSpace=wrap;html=1;aspect=fixed;fontSize=17;fontColor=#000000;" parent="1" vertex="1">
          <mxGeometry x="680" y="-90" width="80" height="80" as="geometry" />
        </mxCell>
        <mxCell id="TGKqARG2-MbJU1Pvm6La-144" style="edgeStyle=orthogonalEdgeStyle;rounded=0;orthogonalLoop=1;jettySize=auto;html=1;entryX=1;entryY=0;entryDx=0;entryDy=0;startArrow=none;startFill=0;endArrow=none;endFill=0;fontSize=17;" parent="1" source="TGKqARG2-MbJU1Pvm6La-134" target="TGKqARG2-MbJU1Pvm6La-9" edge="1">
          <mxGeometry relative="1" as="geometry" />
        </mxCell>
        <mxCell id="TGKqARG2-MbJU1Pvm6La-134" value="&lt;pre style=&quot;background-color: rgb(255, 255, 255); font-family: consolas; font-size: 9.8pt;&quot;&gt;&lt;span style=&quot;font-weight: bold;&quot;&gt;btotal cost&lt;/span&gt;&lt;/pre&gt;" style="ellipse;whiteSpace=wrap;html=1;aspect=fixed;fontSize=17;fontColor=#000000;" parent="1" vertex="1">
          <mxGeometry x="730" y="-10" width="80" height="80" as="geometry" />
        </mxCell>
        <mxCell id="TGKqARG2-MbJU1Pvm6La-143" style="edgeStyle=orthogonalEdgeStyle;rounded=0;orthogonalLoop=1;jettySize=auto;html=1;entryX=1;entryY=0.25;entryDx=0;entryDy=0;startArrow=none;startFill=0;endArrow=none;endFill=0;fontSize=17;" parent="1" source="TGKqARG2-MbJU1Pvm6La-135" target="TGKqARG2-MbJU1Pvm6La-9" edge="1">
          <mxGeometry relative="1" as="geometry" />
        </mxCell>
        <mxCell id="TGKqARG2-MbJU1Pvm6La-135" value="&lt;div style=&quot;text-align: justify&quot;&gt;&lt;pre style=&quot;background-color: rgb(255 , 255 , 255) ; font-family: &amp;quot;consolas&amp;quot; ; font-size: 9.8pt&quot;&gt;&lt;span style=&quot;font-weight: bold;&quot;&gt;b amount&lt;/span&gt;&lt;/pre&gt;&lt;/div&gt;" style="ellipse;whiteSpace=wrap;html=1;aspect=fixed;fontSize=17;fontColor=#000000;" parent="1" vertex="1">
          <mxGeometry x="850" y="-90" width="80" height="80" as="geometry" />
        </mxCell>
        <mxCell id="TGKqARG2-MbJU1Pvm6La-140" style="edgeStyle=orthogonalEdgeStyle;rounded=0;orthogonalLoop=1;jettySize=auto;html=1;startArrow=none;startFill=0;endArrow=none;endFill=0;fontSize=17;" parent="1" source="TGKqARG2-MbJU1Pvm6La-139" edge="1">
          <mxGeometry relative="1" as="geometry">
            <mxPoint x="780" y="159" as="targetPoint" />
            <Array as="points">
              <mxPoint x="780" y="190" />
            </Array>
          </mxGeometry>
        </mxCell>
        <mxCell id="TGKqARG2-MbJU1Pvm6La-139" value="&lt;meta http-equiv=&quot;content-type&quot; content=&quot;text/html; charset=UTF-8&quot;&gt;&lt;pre style=&quot;font-family: Consolas; font-size: 9.8pt;&quot;&gt;&lt;span style=&quot;font-weight: bold;&quot;&gt;bname&lt;/span&gt;&lt;/pre&gt;" style="ellipse;whiteSpace=wrap;html=1;aspect=fixed;fontSize=17;fillColor=#fff2cc;strokeColor=#d6b656;labelBackgroundColor=none;fontStyle=4;fontColor=#000000;" parent="1" vertex="1">
          <mxGeometry x="980" y="150" width="80" height="80" as="geometry" />
        </mxCell>
        <mxCell id="TGKqARG2-MbJU1Pvm6La-142" style="edgeStyle=orthogonalEdgeStyle;rounded=0;orthogonalLoop=1;jettySize=auto;html=1;entryX=1;entryY=0.5;entryDx=0;entryDy=0;startArrow=none;startFill=0;endArrow=none;endFill=0;fontSize=17;" parent="1" source="TGKqARG2-MbJU1Pvm6La-141" target="TGKqARG2-MbJU1Pvm6La-9" edge="1">
          <mxGeometry relative="1" as="geometry" />
        </mxCell>
        <mxCell id="TGKqARG2-MbJU1Pvm6La-141" value="&lt;pre style=&quot;background-color: rgb(255, 255, 255); font-family: consolas; font-size: 9.8pt;&quot;&gt;&lt;span style=&quot;font-weight: bold;&quot;&gt;b brand&lt;/span&gt;&lt;/pre&gt;" style="ellipse;whiteSpace=wrap;html=1;aspect=fixed;fontSize=17;fontStyle=4;fontColor=#000000;" parent="1" vertex="1">
          <mxGeometry x="910" width="80" height="80" as="geometry" />
        </mxCell>
        <mxCell id="TGKqARG2-MbJU1Pvm6La-148" style="edgeStyle=orthogonalEdgeStyle;rounded=0;orthogonalLoop=1;jettySize=auto;html=1;startArrow=none;startFill=0;endArrow=none;endFill=0;fontSize=17;entryX=0.25;entryY=0;entryDx=0;entryDy=0;" parent="1" source="TGKqARG2-MbJU1Pvm6La-147" target="TGKqARG2-MbJU1Pvm6La-9" edge="1">
          <mxGeometry relative="1" as="geometry">
            <mxPoint x="700" y="60" as="targetPoint" />
            <Array as="points">
              <mxPoint x="650" y="-10" />
              <mxPoint x="700" y="-10" />
            </Array>
          </mxGeometry>
        </mxCell>
        <mxCell id="TGKqARG2-MbJU1Pvm6La-147" value="&lt;pre style=&quot;background-color: rgb(255, 255, 255); font-family: consolas; font-size: 9.8pt;&quot;&gt;&lt;span style=&quot;font-weight: bold;&quot;&gt;bexpected &lt;/span&gt;&lt;/pre&gt;&lt;pre style=&quot;background-color: rgb(255, 255, 255); font-family: consolas; font-size: 9.8pt;&quot;&gt;&lt;span style=&quot;font-weight: bold;&quot;&gt;return date&lt;/span&gt;&lt;/pre&gt;" style="ellipse;whiteSpace=wrap;html=1;aspect=fixed;fontSize=17;fontColor=#000000;" parent="1" vertex="1">
          <mxGeometry x="610" y="-160" width="80" height="80" as="geometry" />
        </mxCell>
        <mxCell id="FO-TaxdujKSURo-2o1d0-7" style="edgeStyle=orthogonalEdgeStyle;rounded=0;orthogonalLoop=1;jettySize=auto;html=1;entryX=0.75;entryY=0;entryDx=0;entryDy=0;endArrow=none;endFill=0;" edge="1" parent="1" source="FO-TaxdujKSURo-2o1d0-1" target="TGKqARG2-MbJU1Pvm6La-6">
          <mxGeometry relative="1" as="geometry" />
        </mxCell>
        <mxCell id="FO-TaxdujKSURo-2o1d0-1" value="&lt;pre style=&quot;background-color: rgb(255, 255, 255); font-family: consolas; font-size: 9.8pt;&quot;&gt;&lt;pre style=&quot;font-family: &amp;quot;consolas&amp;quot; ; font-size: 9.8pt&quot;&gt;&lt;span style=&quot;font-weight: bold;&quot;&gt;late fee&lt;/span&gt;&lt;/pre&gt;&lt;/pre&gt;" style="ellipse;whiteSpace=wrap;html=1;aspect=fixed;fontSize=17;fontStyle=0;fontColor=#000000;" vertex="1" parent="1">
          <mxGeometry x="160" y="-190" width="80" height="80" as="geometry" />
        </mxCell>
        <mxCell id="FO-TaxdujKSURo-2o1d0-10" style="edgeStyle=orthogonalEdgeStyle;rounded=0;orthogonalLoop=1;jettySize=auto;html=1;entryX=0;entryY=0.25;entryDx=0;entryDy=0;endArrow=none;endFill=0;" edge="1" parent="1" source="FO-TaxdujKSURo-2o1d0-2" target="TGKqARG2-MbJU1Pvm6La-6">
          <mxGeometry relative="1" as="geometry" />
        </mxCell>
        <mxCell id="FO-TaxdujKSURo-2o1d0-2" value="&lt;pre style=&quot;background-color: rgb(255, 255, 255); font-family: consolas; font-size: 9.8pt;&quot;&gt;&lt;pre style=&quot;font-family: &amp;quot;consolas&amp;quot; ; font-size: 9.8pt&quot;&gt;&lt;span style=&quot;font-weight: bold;&quot;&gt;weekend day&lt;/span&gt;&lt;/pre&gt;&lt;/pre&gt;" style="ellipse;whiteSpace=wrap;html=1;aspect=fixed;fontSize=17;fontStyle=0;fontColor=#000000;" vertex="1" parent="1">
          <mxGeometry x="-40" y="-130" width="80" height="80" as="geometry" />
        </mxCell>
        <mxCell id="FO-TaxdujKSURo-2o1d0-3" value="&lt;pre style=&quot;background-color: rgb(255, 255, 255); font-family: consolas; font-size: 9.8pt;&quot;&gt;&lt;pre style=&quot;font-family: &amp;quot;consolas&amp;quot; ; font-size: 9.8pt&quot;&gt;&lt;span style=&quot;font-weight: bold;&quot;&gt;weekday&lt;/span&gt;&lt;/pre&gt;&lt;/pre&gt;" style="ellipse;whiteSpace=wrap;html=1;aspect=fixed;fontSize=17;fontStyle=0;fontColor=#000000;" vertex="1" parent="1">
          <mxGeometry x="340" y="-160" width="80" height="80" as="geometry" />
        </mxCell>
        <mxCell id="FO-TaxdujKSURo-2o1d0-9" style="edgeStyle=orthogonalEdgeStyle;rounded=0;orthogonalLoop=1;jettySize=auto;html=1;exitX=1;exitY=1;exitDx=0;exitDy=0;endArrow=none;endFill=0;" edge="1" parent="1" source="FO-TaxdujKSURo-2o1d0-4" target="TGKqARG2-MbJU1Pvm6La-6">
          <mxGeometry relative="1" as="geometry" />
        </mxCell>
        <mxCell id="FO-TaxdujKSURo-2o1d0-4" value="&lt;pre style=&quot;background-color: rgb(255, 255, 255); font-family: consolas; font-size: 9.8pt;&quot;&gt;&lt;pre style=&quot;font-family: &amp;quot;consolas&amp;quot; ; font-size: 9.8pt&quot;&gt;&lt;span style=&quot;font-weight: bold;&quot;&gt;equipment&lt;/span&gt;&lt;/pre&gt;&lt;pre style=&quot;font-family: &amp;quot;consolas&amp;quot; ; font-size: 9.8pt&quot;&gt;&lt;span style=&quot;font-weight: bold;&quot;&gt;amount&lt;/span&gt;&lt;/pre&gt;&lt;/pre&gt;" style="ellipse;whiteSpace=wrap;html=1;aspect=fixed;fontSize=17;fontStyle=0;fontColor=#000000;" vertex="1" parent="1">
          <mxGeometry x="70" y="-200" width="80" height="80" as="geometry" />
        </mxCell>
        <mxCell id="FO-TaxdujKSURo-2o1d0-11" value="&lt;pre style=&quot;font-family: consolas; font-size: 9.8pt;&quot;&gt;&lt;font&gt;&lt;span&gt;Primary key&lt;/span&gt;&lt;/font&gt;&lt;/pre&gt;" style="ellipse;whiteSpace=wrap;html=1;aspect=fixed;fontSize=17;fontStyle=5;fillColor=#fff2cc;strokeColor=#d6b656;fontColor=#000000;labelBackgroundColor=none;" vertex="1" parent="1">
          <mxGeometry x="390" y="-340" width="80" height="80" as="geometry" />
        </mxCell>
        <mxCell id="FO-TaxdujKSURo-2o1d0-12" value="&lt;pre style=&quot;background-color: rgb(255 , 255 , 255) ; font-family: &amp;quot;consolas&amp;quot; ; font-size: 9.8pt&quot;&gt;&lt;font&gt;&lt;span&gt;Foreign key&lt;/span&gt;&lt;/font&gt;&lt;/pre&gt;" style="ellipse;whiteSpace=wrap;html=1;aspect=fixed;fontSize=17;fontStyle=5;fontColor=#000000;" vertex="1" parent="1">
          <mxGeometry x="494" y="-340" width="80" height="80" as="geometry" />
        </mxCell>
        <mxCell id="FO-TaxdujKSURo-2o1d0-17" style="edgeStyle=orthogonalEdgeStyle;rounded=0;orthogonalLoop=1;jettySize=auto;html=1;entryX=0;entryY=1;entryDx=0;entryDy=0;endArrow=none;endFill=0;" edge="1" parent="1" source="FO-TaxdujKSURo-2o1d0-16" target="TGKqARG2-MbJU1Pvm6La-9">
          <mxGeometry relative="1" as="geometry" />
        </mxCell>
        <mxCell id="FO-TaxdujKSURo-2o1d0-16" value="&lt;pre style=&quot;background-color: rgb(255, 255, 255); font-family: consolas; font-size: 9.8pt;&quot;&gt;&lt;span style=&quot;font-weight: bold;&quot;&gt;breplace&lt;/span&gt;&lt;/pre&gt;&lt;pre style=&quot;background-color: rgb(255, 255, 255); font-family: consolas; font-size: 9.8pt;&quot;&gt;&lt;span style=&quot;font-weight: bold;&quot;&gt;amount&lt;/span&gt;&lt;/pre&gt;" style="ellipse;whiteSpace=wrap;html=1;aspect=fixed;fontSize=17;fontStyle=0;fontColor=#000000;" vertex="1" parent="1">
          <mxGeometry x="540" y="190" width="80" height="80" as="geometry" />
        </mxCell>
        <mxCell id="FO-TaxdujKSURo-2o1d0-44" style="edgeStyle=orthogonalEdgeStyle;rounded=0;orthogonalLoop=1;jettySize=auto;html=1;entryX=0;entryY=0.75;entryDx=0;entryDy=0;startArrow=none;startFill=0;endArrow=none;endFill=0;" edge="1" parent="1" source="FO-TaxdujKSURo-2o1d0-25" target="TGKqARG2-MbJU1Pvm6La-8">
          <mxGeometry relative="1" as="geometry" />
        </mxCell>
        <mxCell id="FO-TaxdujKSURo-2o1d0-25" value="&lt;pre style=&quot;background-color: rgb(255, 255, 255); font-family: consolas; font-size: 9.8pt;&quot;&gt;&lt;pre style=&quot;font-family: &amp;quot;consolas&amp;quot; ; font-size: 9.8pt&quot;&gt;&lt;span style=&quot;font-weight: bold;&quot;&gt;prefund&lt;/span&gt;&lt;/pre&gt;&lt;pre style=&quot;font-family: &amp;quot;consolas&amp;quot; ; font-size: 9.8pt&quot;&gt;&lt;span style=&quot;font-weight: bold;&quot;&gt;amount&lt;/span&gt;&lt;/pre&gt;&lt;/pre&gt;" style="ellipse;whiteSpace=wrap;html=1;aspect=fixed;fontSize=17;fontStyle=0;fontColor=#000000;" vertex="1" parent="1">
          <mxGeometry x="-110" y="720" width="80" height="80" as="geometry" />
        </mxCell>
        <mxCell id="FO-TaxdujKSURo-2o1d0-43" style="edgeStyle=orthogonalEdgeStyle;rounded=0;orthogonalLoop=1;jettySize=auto;html=1;entryX=0;entryY=1;entryDx=0;entryDy=0;startArrow=none;startFill=0;endArrow=none;endFill=0;" edge="1" parent="1" source="FO-TaxdujKSURo-2o1d0-26" target="TGKqARG2-MbJU1Pvm6La-8">
          <mxGeometry relative="1" as="geometry" />
        </mxCell>
        <mxCell id="FO-TaxdujKSURo-2o1d0-26" value="&lt;pre style=&quot;background-color: rgb(255, 255, 255); font-family: consolas; font-size: 9.8pt;&quot;&gt;&lt;pre style=&quot;font-family: &amp;quot;consolas&amp;quot; ; font-size: 9.8pt&quot;&gt;&lt;span style=&quot;font-weight: bold;&quot;&gt;paddress&lt;/span&gt;&lt;/pre&gt;&lt;/pre&gt;" style="ellipse;whiteSpace=wrap;html=1;aspect=fixed;fontSize=17;fontStyle=0;fontColor=#000000;" vertex="1" parent="1">
          <mxGeometry x="-10" y="820" width="80" height="80" as="geometry" />
        </mxCell>
        <mxCell id="FO-TaxdujKSURo-2o1d0-42" style="edgeStyle=orthogonalEdgeStyle;rounded=0;orthogonalLoop=1;jettySize=auto;html=1;startArrow=none;startFill=0;endArrow=none;endFill=0;" edge="1" parent="1" source="FO-TaxdujKSURo-2o1d0-27">
          <mxGeometry relative="1" as="geometry">
            <mxPoint x="190" y="740" as="targetPoint" />
            <Array as="points">
              <mxPoint x="190" y="920" />
              <mxPoint x="190" y="740" />
            </Array>
          </mxGeometry>
        </mxCell>
        <mxCell id="FO-TaxdujKSURo-2o1d0-27" value="&lt;pre style=&quot;background-color: rgb(255, 255, 255); font-family: consolas; font-size: 9.8pt;&quot;&gt;&lt;span style=&quot;font-weight: bold;&quot;&gt;pactual&lt;/span&gt;&lt;/pre&gt;&lt;pre style=&quot;background-color: rgb(255, 255, 255); font-family: consolas; font-size: 9.8pt;&quot;&gt;&lt;span style=&quot;font-weight: bold;&quot;&gt;return_date&lt;/span&gt;&lt;/pre&gt;" style="ellipse;whiteSpace=wrap;html=1;aspect=fixed;fontSize=17;fontStyle=0;fontColor=#000000;" vertex="1" parent="1">
          <mxGeometry x="150" y="910" width="80" height="80" as="geometry" />
        </mxCell>
        <mxCell id="FO-TaxdujKSURo-2o1d0-41" style="edgeStyle=orthogonalEdgeStyle;rounded=0;orthogonalLoop=1;jettySize=auto;html=1;entryX=0.75;entryY=1;entryDx=0;entryDy=0;startArrow=none;startFill=0;endArrow=none;endFill=0;" edge="1" parent="1" source="FO-TaxdujKSURo-2o1d0-28" target="TGKqARG2-MbJU1Pvm6La-8">
          <mxGeometry relative="1" as="geometry" />
        </mxCell>
        <mxCell id="FO-TaxdujKSURo-2o1d0-28" value="&lt;pre style=&quot;background-color: rgb(255, 255, 255); font-family: consolas; font-size: 9.8pt;&quot;&gt;&lt;span style=&quot;font-weight: bold;&quot;&gt;pexpected&lt;/span&gt;&lt;/pre&gt;&lt;pre style=&quot;background-color: rgb(255, 255, 255); font-family: consolas; font-size: 9.8pt;&quot;&gt;&lt;span style=&quot;font-weight: bold;&quot;&gt;retrun_date&lt;/span&gt;&lt;/pre&gt;" style="ellipse;whiteSpace=wrap;html=1;aspect=fixed;fontSize=17;fontStyle=0;fontColor=#000000;" vertex="1" parent="1">
          <mxGeometry x="330" y="870" width="80" height="80" as="geometry" />
        </mxCell>
        <mxCell id="FO-TaxdujKSURo-2o1d0-40" style="edgeStyle=orthogonalEdgeStyle;rounded=0;orthogonalLoop=1;jettySize=auto;html=1;entryX=1;entryY=1;entryDx=0;entryDy=0;startArrow=none;startFill=0;endArrow=none;endFill=0;" edge="1" parent="1" source="FO-TaxdujKSURo-2o1d0-29" target="TGKqARG2-MbJU1Pvm6La-8">
          <mxGeometry relative="1" as="geometry">
            <Array as="points">
              <mxPoint x="280" y="770" />
            </Array>
          </mxGeometry>
        </mxCell>
        <mxCell id="FO-TaxdujKSURo-2o1d0-29" value="&lt;pre style=&quot;background-color: rgb(255, 255, 255); font-family: consolas; font-size: 9.8pt;&quot;&gt;&lt;pre style=&quot;font-family: &amp;quot;consolas&amp;quot; ; font-size: 9.8pt&quot;&gt;&lt;span style=&quot;font-weight: bold;&quot;&gt;phiring_date&lt;/span&gt;&lt;/pre&gt;&lt;/pre&gt;" style="ellipse;whiteSpace=wrap;html=1;aspect=fixed;fontSize=17;fontStyle=0;fontColor=#000000;" vertex="1" parent="1">
          <mxGeometry x="280" y="780" width="80" height="80" as="geometry" />
        </mxCell>
        <mxCell id="FO-TaxdujKSURo-2o1d0-39" style="edgeStyle=orthogonalEdgeStyle;rounded=0;orthogonalLoop=1;jettySize=auto;html=1;entryX=1;entryY=0.75;entryDx=0;entryDy=0;startArrow=none;startFill=0;endArrow=none;endFill=0;" edge="1" parent="1" source="FO-TaxdujKSURo-2o1d0-30" target="TGKqARG2-MbJU1Pvm6La-8">
          <mxGeometry relative="1" as="geometry" />
        </mxCell>
        <mxCell id="FO-TaxdujKSURo-2o1d0-30" value="&lt;pre style=&quot;background-color: rgb(255, 255, 255); font-family: consolas; font-size: 9.8pt;&quot;&gt;&lt;pre style=&quot;font-family: &amp;quot;consolas&amp;quot; ; font-size: 9.8pt&quot;&gt;&lt;span style=&quot;font-weight: bold;&quot;&gt;ptotal_cost&lt;/span&gt;&lt;/pre&gt;&lt;/pre&gt;" style="ellipse;whiteSpace=wrap;html=1;aspect=fixed;fontSize=17;fontStyle=0;fontColor=#000000;" vertex="1" parent="1">
          <mxGeometry x="494" y="740" width="80" height="80" as="geometry" />
        </mxCell>
        <mxCell id="FO-TaxdujKSURo-2o1d0-38" style="edgeStyle=orthogonalEdgeStyle;rounded=0;orthogonalLoop=1;jettySize=auto;html=1;entryX=1;entryY=0.5;entryDx=0;entryDy=0;startArrow=none;startFill=0;endArrow=none;endFill=0;" edge="1" parent="1" source="FO-TaxdujKSURo-2o1d0-31" target="TGKqARG2-MbJU1Pvm6La-8">
          <mxGeometry relative="1" as="geometry" />
        </mxCell>
        <mxCell id="FO-TaxdujKSURo-2o1d0-31" value="&lt;pre style=&quot;background-color: rgb(255, 255, 255); font-family: consolas; font-size: 9.8pt;&quot;&gt;&lt;pre style=&quot;font-family: &amp;quot;consolas&amp;quot; ; font-size: 9.8pt&quot;&gt;&lt;span style=&quot;font-weight: bold;&quot;&gt;p_amount&lt;/span&gt;&lt;/pre&gt;&lt;/pre&gt;" style="ellipse;whiteSpace=wrap;html=1;aspect=fixed;fontSize=17;fontStyle=0;fontColor=#000000;" vertex="1" parent="1">
          <mxGeometry x="640" y="670" width="80" height="80" as="geometry" />
        </mxCell>
        <mxCell id="FO-TaxdujKSURo-2o1d0-37" style="edgeStyle=orthogonalEdgeStyle;rounded=0;orthogonalLoop=1;jettySize=auto;html=1;entryX=1;entryY=0.25;entryDx=0;entryDy=0;startArrow=none;startFill=0;endArrow=none;endFill=0;" edge="1" parent="1" source="FO-TaxdujKSURo-2o1d0-32" target="TGKqARG2-MbJU1Pvm6La-8">
          <mxGeometry relative="1" as="geometry" />
        </mxCell>
        <mxCell id="FO-TaxdujKSURo-2o1d0-32" value="&lt;meta http-equiv=&quot;content-type&quot; content=&quot;text/html; charset=UTF-8&quot;&gt;&lt;pre style=&quot;background-color: rgb(255, 255, 255); font-family: Consolas; font-size: 9.8pt;&quot;&gt;&lt;span style=&quot;font-weight: bold;&quot;&gt;pbrand&lt;/span&gt;&lt;/pre&gt;" style="ellipse;whiteSpace=wrap;html=1;aspect=fixed;fontSize=17;fontStyle=4;fontColor=#000000;" vertex="1" parent="1">
          <mxGeometry x="560" y="610" width="80" height="80" as="geometry" />
        </mxCell>
        <mxCell id="FO-TaxdujKSURo-2o1d0-36" style="edgeStyle=orthogonalEdgeStyle;rounded=0;orthogonalLoop=1;jettySize=auto;html=1;entryX=1;entryY=0;entryDx=0;entryDy=0;startArrow=none;startFill=0;endArrow=none;endFill=0;" edge="1" parent="1" source="FO-TaxdujKSURo-2o1d0-33" target="TGKqARG2-MbJU1Pvm6La-8">
          <mxGeometry relative="1" as="geometry" />
        </mxCell>
        <mxCell id="FO-TaxdujKSURo-2o1d0-33" value="&lt;pre style=&quot;background-color: rgb(255, 255, 255); font-family: consolas; font-size: 9.8pt;&quot;&gt;&lt;pre style=&quot;font-family: &amp;quot;consolas&amp;quot; ; font-size: 9.8pt&quot;&gt;&lt;span style=&quot;font-weight: bold;&quot;&gt;p_equipment&lt;/span&gt;&lt;/pre&gt;&lt;/pre&gt;" style="ellipse;whiteSpace=wrap;html=1;aspect=fixed;fontSize=17;fontStyle=4;fontColor=#000000;" vertex="1" parent="1">
          <mxGeometry x="320" y="600" width="80" height="80" as="geometry" />
        </mxCell>
        <mxCell id="FO-TaxdujKSURo-2o1d0-35" style="edgeStyle=orthogonalEdgeStyle;rounded=0;orthogonalLoop=1;jettySize=auto;html=1;entryX=0.75;entryY=0;entryDx=0;entryDy=0;startArrow=none;startFill=0;endArrow=none;endFill=0;" edge="1" parent="1" source="FO-TaxdujKSURo-2o1d0-34" target="TGKqARG2-MbJU1Pvm6La-8">
          <mxGeometry relative="1" as="geometry" />
        </mxCell>
        <mxCell id="FO-TaxdujKSURo-2o1d0-34" value="&lt;pre style=&quot;font-family: consolas; font-size: 9.8pt;&quot;&gt;&lt;pre style=&quot;font-family: &amp;quot;consolas&amp;quot; ; font-size: 9.8pt&quot;&gt;&lt;span style=&quot;font-weight: bold;&quot;&gt;pname&lt;/span&gt;&lt;/pre&gt;&lt;/pre&gt;" style="ellipse;whiteSpace=wrap;html=1;aspect=fixed;fontSize=17;fontStyle=4;fillColor=#fff2cc;strokeColor=#d6b656;labelBackgroundColor=none;fontColor=#000000;" vertex="1" parent="1">
          <mxGeometry x="320" y="490" width="80" height="80" as="geometry" />
        </mxCell>
        <mxCell id="FO-TaxdujKSURo-2o1d0-48" style="edgeStyle=orthogonalEdgeStyle;rounded=0;orthogonalLoop=1;jettySize=auto;html=1;entryX=0;entryY=0.25;entryDx=0;entryDy=0;startArrow=none;startFill=0;endArrow=none;endFill=0;" edge="1" parent="1" source="FO-TaxdujKSURo-2o1d0-45" target="TGKqARG2-MbJU1Pvm6La-8">
          <mxGeometry relative="1" as="geometry" />
        </mxCell>
        <mxCell id="FO-TaxdujKSURo-2o1d0-45" value="&lt;pre style=&quot;background-color: rgb(255, 255, 255); font-family: consolas; font-size: 9.8pt;&quot;&gt;&lt;pre style=&quot;font-family: &amp;quot;consolas&amp;quot; ; font-size: 9.8pt&quot;&gt;&lt;pre style=&quot;font-family: &amp;quot;consolas&amp;quot; ; font-size: 9.8pt&quot;&gt;&lt;span style=&quot;&quot;&gt;preplace_amount&lt;/span&gt;&lt;/pre&gt;&lt;/pre&gt;&lt;/pre&gt;" style="ellipse;whiteSpace=wrap;html=1;aspect=fixed;fontSize=17;fontStyle=1;fontColor=#000000;" vertex="1" parent="1">
          <mxGeometry x="50" y="510" width="80" height="80" as="geometry" />
        </mxCell>
        <mxCell id="FO-TaxdujKSURo-2o1d0-47" style="edgeStyle=orthogonalEdgeStyle;rounded=0;orthogonalLoop=1;jettySize=auto;html=1;entryX=0;entryY=0.5;entryDx=0;entryDy=0;startArrow=none;startFill=0;endArrow=none;endFill=0;" edge="1" parent="1" source="FO-TaxdujKSURo-2o1d0-46" target="TGKqARG2-MbJU1Pvm6La-8">
          <mxGeometry relative="1" as="geometry" />
        </mxCell>
        <mxCell id="FO-TaxdujKSURo-2o1d0-46" value="&lt;pre style=&quot;background-color: rgb(255, 255, 255); font-family: consolas; font-size: 9.8pt;&quot;&gt;&lt;pre style=&quot;font-family: &amp;quot;consolas&amp;quot; ; font-size: 9.8pt&quot;&gt;&lt;pre style=&quot;font-family: &amp;quot;consolas&amp;quot; ; font-size: 9.8pt&quot;&gt;&lt;span style=&quot;font-weight: bold;&quot;&gt;prefund&lt;/span&gt;&lt;/pre&gt;&lt;pre style=&quot;font-family: &amp;quot;consolas&amp;quot; ; font-size: 9.8pt&quot;&gt;&lt;span style=&quot;font-weight: bold;&quot;&gt;price&lt;/span&gt;&lt;/pre&gt;&lt;/pre&gt;&lt;/pre&gt;" style="ellipse;whiteSpace=wrap;html=1;aspect=fixed;fontSize=17;fontStyle=0;fontColor=#000000;" vertex="1" parent="1">
          <mxGeometry x="-130" y="620" width="80" height="80" as="geometry" />
        </mxCell>
      </root>
    </mxGraphModel>
  </diagram>
</mxfile>
